<svg xmlns="http://www.w3.org/2000/svg" width="430.954" height="341.426" viewBox="0 0 430.954 341.426">
  <g id="undraw_businesswoman_re_5n6b" transform="translate(0.003 0)">
    <path id="Caminho_1" data-name="Caminho 1" d="M675.827,531.811l14.433-16.516.15.132,2.655-3.038-.151-.132,4.431-5.071a1.915,1.915,0,0,0-.182-2.7L686.431,495.1a1.915,1.915,0,0,0-2.7.182l-3.09,3.536-.245-.2-1.808,2.166.2.164-.41.469-.208-.174-1.808,2.166.159.133-14.305,16.37a1.912,1.912,0,0,0,.182,2.7l10.732,9.379A1.918,1.918,0,0,0,675.827,531.811Z" transform="translate(-414.362 -301.541)" fill="#3f3d56"/>
    <path id="Caminho_2" data-name="Caminho 2" d="M663.436,522.454a.92.92,0,0,1,.112-1.05l21.745-24.885a.918.918,0,0,1,1.3-.087l2.284,2-.089.045a1.058,1.058,0,0,0-.221,1.742l5.068,4.429a1.071,1.071,0,0,0,.955.159,1.049,1.049,0,0,0,.681-.665l.032-.094,2.359,2.061a.919.919,0,0,1,.087,1.295L677,531.141a2.438,2.438,0,0,1-3.436.231l-9.925-8.673A.919.919,0,0,1,663.436,522.454Z" transform="translate(-415.154 -302.327)" fill="#fff"/>
    <circle id="Elipse_1" data-name="Elipse 1" cx="3.628" cy="3.628" r="3.628" transform="translate(266.571 203.06)" fill="#29d3ff"/>
    <path id="Caminho_3" data-name="Caminho 3" d="M691.734,540.316l-10.052-8.784a.317.317,0,1,1,.418-.478l10.052,8.784a.317.317,0,0,1-.418.478Z" transform="translate(-424.278 -319.708)" fill="#fff"/>
    <path id="Caminho_4" data-name="Caminho 4" d="M689.848,542.471l-3.306-2.889a.317.317,0,0,1,.418-.478l3.307,2.889a.317.317,0,0,1-.418.478Z" transform="translate(-426.707 -323.732)" fill="#fff"/>
    <path id="Caminho_5" data-name="Caminho 5" d="M686.025,546.845l-3.306-2.889a.317.317,0,1,1,.418-.478l3.306,2.889a.317.317,0,0,1-.418.478Z" transform="translate(-424.796 -325.918)" fill="#fff"/>
    <path id="Caminho_6" data-name="Caminho 6" d="M684.068,549.086l-3.306-2.889a.317.317,0,0,1,.418-.478l3.306,2.889a.317.317,0,1,1-.418.478Z" transform="translate(-423.818 -327.038)" fill="#fff"/>
    <path id="Caminho_7" data-name="Caminho 7" d="M687.964,544.628l-7.015-6.13a.317.317,0,1,1,.418-.478l7.015,6.13a.317.317,0,1,1-.418.478Z" transform="translate(-423.912 -323.19)" fill="#fff"/>
    <path id="Caminho_8" data-name="Caminho 8" d="M679.719,553.053l-1.2-1.049a.54.54,0,0,1,.71-.813l1.2,1.049a.54.54,0,0,1-.71.813Z" transform="translate(-422.658 -329.746)" fill="#fff"/>
    <path id="Caminho_9" data-name="Caminho 9" d="M641.97,460.45a5.874,5.874,0,0,1,.771-8.974l-9.589-46.406,10.345,3.264,7.715,44.895a5.906,5.906,0,0,1-9.242,7.223Z" transform="translate(-400.074 -256.772)" fill="#9e616a"/>
    <path id="Caminho_10" data-name="Caminho 10" d="M602.017,262.938l6.408-4.837s5.653-.4,6.654,9.794,7.27,49.322,7.27,49.322l9.806,45.417-13.574,2.979-10.5-49.013-10.514-33.814Z" transform="translate(-382.285 -183.306)" fill="#2f2e41"/>
    <path id="Caminho_11" data-name="Caminho 11" d="M588.42,380.538l-20.915-26.9a2.292,2.292,0,0,1,.4-3.213l30.739-23.9a2.292,2.292,0,0,1,3.213.4l20.915,26.9a2.292,2.292,0,0,1-.4,3.213l-30.739,23.9A2.292,2.292,0,0,1,588.42,380.538Z" transform="translate(-367.019 -217.269)" fill="#3f3d56"/>
    <path id="Caminho_12" data-name="Caminho 12" d="M591.485,380.635l-18.96-24.385a2.035,2.035,0,0,1,.357-2.853l28.132-21.874a2.035,2.035,0,0,1,2.853.357l18.96,24.385a2.035,2.035,0,0,1-.357,2.853l-28.132,21.874A2.035,2.035,0,0,1,591.485,380.635Z" transform="translate(-369.555 -219.795)" fill="#fff"/>
    <path id="Caminho_13" data-name="Caminho 13" d="M654.348,372.592l-9.565-12.3a.508.508,0,1,1,.8-.624l9.565,12.3a.508.508,0,0,1-.8.624Z" transform="translate(-405.834 -233.978)" fill="#e4e4e4"/>
    <path id="Caminho_14" data-name="Caminho 14" d="M651.178,375.056l-9.565-12.3a.508.508,0,1,1,.8-.624l9.565,12.3a.508.508,0,0,1-.8.624Z" transform="translate(-404.25 -235.21)" fill="#e4e4e4"/>
    <path id="Caminho_15" data-name="Caminho 15" d="M642.59,370.552l-4.146-5.332a.508.508,0,0,1,.8-.624l4.146,5.332a.508.508,0,1,1-.8.624Z" transform="translate(-402.666 -236.442)" fill="#e4e4e4"/>
    <path id="Caminho_16" data-name="Caminho 16" d="M627.368,377.394l-15.1-19.42a.508.508,0,1,1,.8-.624l15.1,19.42a.508.508,0,0,1-.8.624Z" transform="translate(-389.581 -232.82)" fill="#e4e4e4"/>
    <path id="Caminho_17" data-name="Caminho 17" d="M624.2,379.859l-15.1-19.42a.508.508,0,0,1,.8-.624l15.1,19.42a.508.508,0,1,1-.8.624Z" transform="translate(-387.997 -234.052)" fill="#e4e4e4"/>
    <path id="Caminho_18" data-name="Caminho 18" d="M617,385.453l-15.1-19.42a.508.508,0,0,1,.8-.624l15.1,19.42a.508.508,0,1,1-.8.624Z" transform="translate(-384.4 -236.849)" fill="#e4e4e4"/>
    <path id="Caminho_19" data-name="Caminho 19" d="M613.834,387.918l-15.1-19.42a.508.508,0,0,1,.8-.624l15.1,19.42a.508.508,0,1,1-.8.624Z" transform="translate(-382.816 -238.081)" fill="#e4e4e4"/>
    <path id="Caminho_20" data-name="Caminho 20" d="M606.638,393.513l-15.1-19.42a.508.508,0,0,1,.8-.624l15.1,19.42a.508.508,0,0,1-.8.624Z" transform="translate(-379.219 -240.878)" fill="#e4e4e4"/>
    <path id="Caminho_21" data-name="Caminho 21" d="M603.469,395.977l-15.1-19.42a.508.508,0,0,1,.8-.624l15.1,19.42a.508.508,0,0,1-.8.624Z" transform="translate(-377.635 -242.109)" fill="#e4e4e4"/>
    <circle id="Elipse_2" data-name="Elipse 2" cx="0.209" cy="0.209" r="0.209" transform="translate(251.576 176.093)" fill="#fff"/>
    <path id="Caminho_22" data-name="Caminho 22" d="M661.393,537.534h-1.5v-13.5a18.255,18.255,0,1,0-36.51,0v13.5h-1.5v-13.5a19.755,19.755,0,1,1,39.511,0Z" transform="translate(-394.44 -306.361)" fill="#2f2e41"/>
    <path id="Caminho_23" data-name="Caminho 23" d="M657.266,538.787a9.708,9.708,0,0,0-9.5-7.512H579.74a9.794,9.794,0,0,0-9.648,8.287,112.315,112.315,0,0,0-1.005,21.471q.173,4.141.615,8.5.285,2.851.68,5.8a9.789,9.789,0,0,0,9.673,8.452h67.583a9.7,9.7,0,0,0,9.518-7.617q.75-3.331,1.24-6.637a85.363,85.363,0,0,0,.85-8.5A79.844,79.844,0,0,0,657.266,538.787Z" transform="translate(-367.982 -319.857)" fill="#29d3ff"/>
    <path id="Caminho_24" data-name="Caminho 24" d="M661.393,529.034h-1.5v-13.5a18.255,18.255,0,1,0-36.51,0v13.5h-1.5v-13.5a19.755,19.755,0,1,1,39.511,0Z" transform="translate(-394.44 -302.112)" fill="#2f2e41"/>
    <path id="Caminho_25" data-name="Caminho 25" d="M656.9,533.238l-2.5-4.331a2.442,2.442,0,0,0-4.517.54v5a1.75,1.75,0,0,0,3.5,0v-.3l.485.839a1.75,1.75,0,1,0,3.032-1.75Z" transform="translate(-408.436 -318.029)" fill="#2f2e41"/>
    <circle id="Elipse_3" data-name="Elipse 3" cx="3.001" cy="3.001" r="3.001" transform="translate(225.691 223.921)" fill="#2f2e41"/>
    <circle id="Elipse_4" data-name="Elipse 4" cx="3.001" cy="3.001" r="3.001" transform="translate(262.951 224.171)" fill="#2f2e41"/>
    <path id="Caminho_26" data-name="Caminho 26" d="M659.381,590.775a85.379,85.379,0,0,1-.85,8.5H569.837q-.443-4.366-.615-8.5Z" transform="translate(-368.117 -349.599)" fill="#3f3d56"/>
    <path id="Caminho_28" data-name="Caminho 28" d="M264,619.125a54.548,54.548,0,0,0-13.561,30.7,23.489,23.489,0,0,0,.267,7.355,13.473,13.473,0,0,0,3.351,6.249c1.51,1.659,3.247,3.182,4.328,5.179a8.25,8.25,0,0,1,.4,6.735,21.434,21.434,0,0,1-4.749,7.084c-2.126,2.351-4.371,4.759-5.275,7.876-.109.378-.689.186-.58-.191,1.572-5.422,6.836-8.5,9.346-13.386a8.354,8.354,0,0,0,.565-7.33c-.96-2.1-2.75-3.675-4.294-5.342a14.377,14.377,0,0,1-3.5-5.988,21.716,21.716,0,0,1-.549-7.318,52.921,52.921,0,0,1,3.865-16.082,55.515,55.515,0,0,1,9.982-16c.261-.292.663.167.4.458Z" transform="translate(-207.634 -363.495)" fill="#fff"/>
    <path id="Caminho_29" data-name="Caminho 29" d="M246.783,664.825a8.184,8.184,0,0,1-6.23-8.573.306.306,0,0,1,.61.031,7.578,7.578,0,0,0,5.811,7.963c.382.091.189.67-.191.58Z" transform="translate(-203.815 -382.189)" fill="#fff"/>
    <path id="Caminho_30" data-name="Caminho 30" d="M258.032,697.495a15.774,15.774,0,0,0,7.044-9.085c.111-.377.69-.185.58.191a16.407,16.407,0,0,1-7.349,9.438c-.339.2-.611-.346-.275-.545Z" transform="translate(-212.487 -398.302)" fill="#fff"/>
    <path id="Caminho_31" data-name="Caminho 31" d="M264.566,639.912a4.633,4.633,0,0,0,4.39-.223c.336-.205.608.342.275.545a5.191,5.191,0,0,1-4.856.257.315.315,0,0,1-.194-.385.307.307,0,0,1,.386-.194Z" transform="translate(-215.631 -374.027)" fill="#fff"/>
    <path id="Caminho_33" data-name="Caminho 33" d="M303.892,668.2a54.548,54.548,0,0,0-29.31,16.347,23.49,23.49,0,0,0-4.215,6.034,13.473,13.473,0,0,0-1.087,7.007c.207,2.234.677,4.5.337,6.741a8.249,8.249,0,0,1-3.733,5.62,21.431,21.431,0,0,1-8.057,2.8c-3.113.6-6.356,1.168-8.953,3.112-.315.235-.662-.267-.348-.5,4.52-3.383,10.577-2.673,15.522-5.061a8.354,8.354,0,0,0,4.864-5.513c.5-2.258.017-4.59-.212-6.85a14.376,14.376,0,0,1,.807-6.891,21.716,21.716,0,0,1,3.967-6.173,52.921,52.921,0,0,1,12.769-10.514,55.515,55.515,0,0,1,17.6-6.763c.384-.076.429.533.047.609Z" transform="translate(-207.751 -387.996)" fill="#fff"/>
    <path id="Caminho_34" data-name="Caminho 34" d="M303.6,685.111a8.184,8.184,0,0,1,.188-10.6c.261-.294.73.1.469.392a7.578,7.578,0,0,0-.154,9.857c.25.3-.253.648-.5.348Z" transform="translate(-234.417 -391.406)" fill="#fff"/>
    <path id="Caminho_35" data-name="Caminho 35" d="M289.285,722.269a15.774,15.774,0,0,0,11.094-3.013c.316-.234.663.268.348.5a16.407,16.407,0,0,1-11.55,3.111c-.391-.043-.28-.644.109-.6Z" transform="translate(-228.01 -413.792)" fill="#fff"/>
    <path id="Caminho_36" data-name="Caminho 36" d="M334.595,676.116a4.632,4.632,0,0,0,3.639,2.465c.392.039.28.639-.109.6a5.191,5.191,0,0,1-4.032-2.718.315.315,0,0,1,.077-.425A.307.307,0,0,1,334.595,676.116Z" transform="translate(-250.559 -392.193)" fill="#fff"/>
    <path id="Caminho_38" data-name="Caminho 38" d="M685.252,602.859A66.389,66.389,0,0,0,703.1,639.6a28.586,28.586,0,0,0,7.041,5.538,16.4,16.4,0,0,0,8.439,1.8c2.729-.1,5.509-.513,8.215.055a10.04,10.04,0,0,1,6.571,4.923c1.791,3.039,2.383,6.54,2.843,9.984.511,3.824.981,7.8,3.165,11.094.265.4-.37.786-.634.388-3.8-5.726-2.519-13.037-5.08-19.21-1.2-2.88-3.265-5.418-6.363-6.291-2.709-.763-5.577-.337-8.339-.214a17.5,17.5,0,0,1-8.318-1.456,26.434,26.434,0,0,1-7.228-5.246,64.415,64.415,0,0,1-11.9-16.241,67.569,67.569,0,0,1-7-21.855c-.066-.472.677-.484.743-.015Z" transform="translate(-425.743 -355.467)" fill="#fff"/>
    <path id="Caminho_39" data-name="Caminho 39" d="M702.108,668.95a9.961,9.961,0,0,1-12.862-.958c-.339-.337.168-.88.508-.542a9.223,9.223,0,0,0,11.966.867C702.1,668.032,702.491,668.668,702.108,668.95Z" transform="translate(-428.057 -387.873)" fill="#fff"/>
    <path id="Caminho_40" data-name="Caminho 40" d="M746.918,677.578a19.2,19.2,0,0,0-2.9-13.688c-.263-.4.371-.787.634-.388a19.97,19.97,0,0,1,2.984,14.25C747.561,678.224,746.839,678.048,746.918,677.578Z" transform="translate(-455.462 -385.869)" fill="#fff"/>
    <path id="Caminho_41" data-name="Caminho 41" d="M693.18,628.6a5.638,5.638,0,0,0,3.246-4.252c.074-.473.8-.3.722.174a6.318,6.318,0,0,1-3.581,4.712.384.384,0,0,1-.511-.123.373.373,0,0,1,.123-.511Z" transform="translate(-429.991 -366.243)" fill="#fff"/>
    <path id="Caminho_43" data-name="Caminho 43" d="M785.1,567.395a66.391,66.391,0,0,0-7.875,40.081,28.586,28.586,0,0,0,2.288,8.661,16.4,16.4,0,0,0,5.652,6.521c2.238,1.565,4.708,2.908,6.526,4.99a10.041,10.041,0,0,1,2.283,7.887c-.4,3.5-2.035,6.656-3.741,9.683-1.894,3.361-3.915,6.821-4.153,10.763-.029.478-.768.4-.74-.072.414-6.859,5.838-11.926,7.51-18.4.78-3.02.655-6.292-1.293-8.854-1.7-2.24-4.25-3.626-6.529-5.192a17.5,17.5,0,0,1-5.765-6.171,26.431,26.431,0,0,1-2.612-8.541,64.411,64.411,0,0,1,.28-20.129,67.565,67.565,0,0,1,7.565-21.667c.232-.417.832.021.6.435Z" transform="translate(-471.477 -337.61)" fill="#fff"/>
    <path id="Caminho_44" data-name="Caminho 44" d="M767.176,630.351a9.961,9.961,0,0,1-9.693-8.509c-.068-.473.664-.6.732-.127a9.223,9.223,0,0,0,9.032,7.9c.478.005.4.745-.072.74Z" transform="translate(-462.22 -364.916)" fill="#fff"/>
    <path id="Caminho_45" data-name="Caminho 45" d="M791.735,664.216a19.2,19.2,0,0,0,5.929-12.673c.03-.478.77-.405.74.072a19.969,19.969,0,0,1-6.2,13.175c-.348.329-.818-.247-.472-.574Z" transform="translate(-479.283 -379.813)" fill="#fff"/>
    <path id="Caminho_46" data-name="Caminho 46" d="M781.654,594.782a5.638,5.638,0,0,0,5.152-1.441c.344-.333.814.243.472.574a6.318,6.318,0,0,1-5.7,1.607.384.384,0,0,1-.334-.406A.373.373,0,0,1,781.654,594.782Z" transform="translate(-474.101 -350.832)" fill="#fff"/>
    <path id="Caminho_48" data-name="Caminho 48" d="M382.279,335.3a6.074,6.074,0,0,0-3.466-1.476c-3.094.074-4.762,4.61-7.854,4.451-1.971-.1-3.28-2.1-5.115-2.83a4.377,4.377,0,0,0-5.691,3.46l.307-.281a74.092,74.092,0,0,0,28.386,1.311Z" transform="translate(-263.611 -221.156)" fill="#f2f2f2"/>
    <path id="Caminho_49" data-name="Caminho 49" d="M365.279,472.3a6.074,6.074,0,0,0-3.466-1.476c-3.094.074-4.763,4.61-7.854,4.451-1.971-.1-3.28-2.1-5.115-2.83a4.377,4.377,0,0,0-5.691,3.46l.307-.281a74.092,74.092,0,0,0,28.386,1.311Z" transform="translate(-255.113 -289.638)" fill="#f2f2f2"/>
    <path id="Caminho_50" data-name="Caminho 50" d="M752.364,208.414c-2.624-3.573-5.495-7.3-8.706-7.15-7.771.361-11.961,22.339-19.725,21.566-4.951-.493-8.237-10.2-12.847-13.714-6-4.58-13.639,4.377-14.294,16.764l.771-1.361c23.254,10.965,47.614,13.136,71.293,6.354Z" transform="translate(-431.885 -154.894)" fill="#f2f2f2"/>
    <circle id="Elipse_5" data-name="Elipse 5" cx="22.506" cy="22.506" r="22.506" transform="translate(49.894 42.622)" fill="#f2f2f2"/>
    <circle id="Elipse_6" data-name="Elipse 6" cx="7.502" cy="7.502" r="7.502" transform="translate(178.429 14.115)" fill="#2f2e41"/>
    <circle id="Elipse_7" data-name="Elipse 7" cx="19.005" cy="19.005" r="19.005" transform="translate(178.929 19.616)" fill="#2f2e41"/>
    <path id="Caminho_51" data-name="Caminho 51" d="M376.2,616.162h8.943l4.256-34.493H376.2Z" transform="translate(-188.051 -290.756)" fill="#9e616a"/>
    <path id="Caminho_52" data-name="Caminho 52" d="M535.684,746.092l14.287-.853v6.121l13.583,9.381a3.824,3.824,0,0,1-2.173,6.97H544.372l-2.932-6.055-1.145,6.055h-6.413Z" transform="translate(-350.452 -426.811)" fill="#2f2e41"/>
    <path id="Caminho_53" data-name="Caminho 53" d="M269.971,600.408l7.176,5.336,24-25.14-10.591-7.876Z" transform="translate(-134.951 -286.287)" fill="#9e616a"/>
    <path id="Caminho_54" data-name="Caminho 54" d="M425.375,723.316l11.974,7.841-3.653,4.912L439,751.7a3.824,3.824,0,0,1-5.9,4.3l-13.649-10.15,1.26-6.608-4.532,4.176-5.146-3.827Z" transform="translate(-289.042 -415.852)" fill="#2f2e41"/>
    <rect id="Retângulo_3" data-name="Retângulo 3" width="34.009" height="32.009" transform="translate(183.43 134.647)" fill="#9e616a"/>
    <path id="Caminho_55" data-name="Caminho 55" d="M491.767,403.35S474.8,418.009,482.628,459.8l9.558,40.947-31.17,51.71,9.939,12.091,40.522-55.971,14.684-34.444,7.767-60.366Z" transform="translate(-314.029 -255.912)" fill="#2f2e41"/>
    <path id="Caminho_56" data-name="Caminho 56" d="M388.372,455.95l1.02,15.805-3.123,67.353-14.7-2.559-2.808-47.954Z" transform="translate(-184.334 -227.914)" fill="#2f2e41"/>
    <path id="Caminho_57" data-name="Caminho 57" d="M379.236,125.739l-16.409.64-6.54,10.856-14.921,2.913,8.907,45.062-8.8,32.7,31.611,13.834,7.034-21.081,9.349,25.557,15.01-16.321-12.354-31.5,6.391-24.854-1.436-26.061-12-1.5Z" transform="translate(-170.638 -62.853)" fill="#2f2e41"/>
    <circle id="Elipse_8" data-name="Elipse 8" cx="15.444" cy="15.444" r="15.444" transform="translate(184.063 26.734)" fill="#9e616a"/>
    <path id="Caminho_58" data-name="Caminho 58" d="M560.113,158.825a17.69,17.69,0,0,0-26.9,15.439c7.869,1.976,16.137,3.488,24.529.473l1.982-4.85,1.168,4.854c2.556,1.045,5.118,1.928,7.68-.01A18.063,18.063,0,0,0,560.113,158.825Z" transform="translate(-350.118 -132.39)" fill="#2f2e41"/>
    <path id="Caminho_59" data-name="Caminho 59" d="M501.524,109.805a15.345,15.345,0,0,0-16.016,2.467,17.356,17.356,0,0,0-5.539,15.446c.851,5.759,4.352,10.719,7.579,15.565s6.381,10.155,6.377,15.977a15.838,15.838,0,0,1-15.806,15.828c4.921,2.119,10.058,4.279,15.41,4.028s10.962-3.692,11.835-8.979c.629-3.809-1.24-7.524-2.8-11.056A78.209,78.209,0,0,1,497.1,141.09c-.521-2.957-.86-6.065.1-8.909a10.461,10.461,0,0,1,10.392-6.865l1.768-1.591A13.768,13.768,0,0,0,501.524,109.805Z" transform="translate(-322.578 -108.554)" fill="#2f2e41"/>
    <path id="Caminho_60" data-name="Caminho 60" d="M597.474,790.031H167.711a.6.6,0,1,1,0-1.191H597.474a.6.6,0,0,1,0,1.191Z" transform="translate(-167.118 -448.605)" fill="none"/>
    <path id="Caminho_61" data-name="Caminho 61" d="M489.155,460.775H474.4a2.286,2.286,0,0,0-1.75.809,3.5,3.5,0,1,0,.9,6.588l1.724,14.481a2.306,2.306,0,0,0,2.2,1.628h9.6a2.306,2.306,0,0,0,2.2-1.628l2.082-18.894a2.306,2.306,0,0,0-2.2-2.985Zm-17.133,6.752a2.5,2.5,0,0,1,0-5c.046,0,.088.011.133.013a2.283,2.283,0,0,0,.035,1.221l1.056,3.433a2.469,2.469,0,0,1-1.224.334Z" transform="translate(-317.776 -284.617)" fill="#29d3ff"/>
    <path id="Caminho_62" data-name="Caminho 62" d="M475.146,452.406a5.874,5.874,0,0,0-.817-8.97l9.353-46.455L473.354,400.3l-7.486,44.933a5.906,5.906,0,0,0,9.279,7.175Z" transform="translate(-316.033 -252.729)" fill="#9e616a"/>
    <path id="Caminho_63" data-name="Caminho 63" d="M491.175,267.938l-6.408-4.837s-5.653-.4-6.654,9.794-7.27,49.322-7.27,49.322l-9.806,45.417,13.574,2.979,10.5-49.013,10.514-33.814Z" transform="translate(-314.039 -185.805)" fill="#2f2e41"/>
    <circle id="Elipse_9" data-name="Elipse 9" cx="3.628" cy="3.628" r="3.628" transform="translate(228.816 117.166)" fill="#29d3ff"/>
  </g>
</svg>
